<svg viewBox="0 0 16 14" fill="none" xmlns="http://www.w3.org/2000/svg">
<g id="Group">
<path id="Subtract" fill-rule="evenodd" clip-rule="evenodd" d="M13.7634 3.81625H0.736572V12.25C0.736572 13.0784 1.40815 13.75 2.23657 13.75H13.7634C14.5918 13.75 15.2634 13.0784 15.2634 12.25V10.4722H12.3794C11.4282 10.4722 10.657 9.70101 10.657 8.74977C10.657 7.79852 11.4282 7.02738 12.3794 7.02738H15.2634V5.31625C15.2634 4.48783 14.5918 3.81625 13.7634 3.81625Z" fill="currentColor"/>
<path id="Rectangle 7" d="M0.736572 2.82822H10.1363V1.75002C10.1363 0.921589 9.46469 0.250016 8.63626 0.250016H2.23657C1.40814 0.250016 0.736572 0.921589 0.736572 1.75002V2.82822Z" fill="currentColor"/>
<circle id="Ellipse 1" cx="12.4528" cy="8.7831" r="0.554101" fill="currentColor"/>
</g>
</svg>
