<svg xmlns="http://www.w3.org/2000/svg" viewBox="0 0 23 24" fill="none">
  <path fill-rule="evenodd" clip-rule="evenodd" d="M21.6456 13.512H20.8455C20.7068 13.512 20.6426 13.4874 20.6198 13.4757C20.5207 12.9609 20.2681 12.2025 19.6292 11.4641C19.0388 10.7816 18.2502 10.267 17.2822 9.93182C17.305 9.09276 17.5408 8.41205 18.0491 7.23628C18.1045 7.108 18.0724 6.9641 17.966 6.86223C17.8594 6.76046 17.6957 6.7176 17.541 6.75093C15.8688 7.11083 14.6917 7.87597 13.9529 9.08574C13.0807 8.92522 12.1731 8.84398 11.2498 8.84398C8.67306 8.84398 6.50598 9.45408 4.62464 10.7091C3.80579 11.2556 3.17748 11.9651 2.75715 12.8174C2.71316 12.9065 2.67179 12.9971 2.63258 13.0889C2.47569 13.043 2.21884 12.9536 1.96789 12.8043C1.48162 12.5145 1.23502 12.1307 1.23502 11.6636C1.23502 11.1866 1.5054 10.7907 1.94059 10.6299C2.15867 10.5495 2.25933 10.3327 2.16531 10.1458C2.07141 9.95882 1.81828 9.87258 1.60025 9.95319C0.85596 10.228 0.375005 10.8993 0.375005 11.6636C0.375005 12.3857 0.765456 12.9949 1.50409 13.4252C1.84124 13.6218 2.17898 13.7366 2.38658 13.7954C2.20878 14.4409 2.1372 15.139 2.17364 15.882C2.26787 17.8125 3.8886 19.2024 4.84833 19.8602L4.88317 19.8834L4.88337 19.8835C5.02412 19.9766 5.05759 19.9988 5.00252 20.1446C4.85098 20.5445 4.57329 21.1153 4.57039 21.121L4.56548 21.1317C4.44422 21.4041 4.45443 21.7008 4.59407 21.9675C4.73381 22.2346 4.98622 22.4385 5.30504 22.5422L6.88682 23.0548C7.03211 23.1023 7.18417 23.1262 7.33895 23.1262C7.86572 23.1262 8.34539 22.8429 8.53185 22.4223C8.53398 22.4177 8.74489 21.9469 8.91433 21.5593C8.94346 21.4937 8.96534 21.4542 8.98005 21.431C9.05058 21.4363 9.16274 21.4563 9.28992 21.479L9.29007 21.4791L9.29619 21.4802C9.69148 21.5512 10.2886 21.6583 11.2498 21.6583C12.1164 21.6583 12.7048 21.6044 13.0944 21.5688L13.0945 21.5688L13.096 21.5686L13.0969 21.5685C13.2855 21.5513 13.4344 21.5377 13.5337 21.5377C13.5507 21.5377 13.5641 21.538 13.5746 21.5387C13.5841 21.5554 13.5977 21.5828 13.6148 21.6261C13.7635 22.0054 13.9425 22.3731 13.9692 22.4275C14.1571 22.8458 14.6342 23.1262 15.1595 23.1262C15.3143 23.1262 15.4665 23.1023 15.6119 23.055L17.1924 22.5422C17.5119 22.4387 17.765 22.2343 17.9051 21.967C18.0448 21.7003 18.0547 21.4035 17.9339 21.1329L17.6804 20.5577C17.6718 20.5385 17.6614 20.5197 17.6493 20.502C17.6493 20.502 17.6484 20.4719 17.6491 20.4695C17.654 20.4545 17.6866 20.4175 17.7784 20.3748C18.9285 19.8387 19.8467 19.0012 20.4342 17.9518C20.5459 17.7507 20.6103 17.6747 20.8455 17.6747H21.6457C22.3235 17.6747 22.875 17.2025 22.875 16.6223V14.5661C22.875 13.9848 22.3235 13.512 21.6456 13.512ZM17.2712 15.0994C16.7505 15.0994 16.3289 14.7092 16.3289 14.2281C16.3289 13.7476 16.7505 13.3577 17.2712 13.3577C17.7904 13.3577 18.2106 13.7476 18.2106 14.2281C18.2106 14.7092 17.7904 15.0994 17.2712 15.0994ZM12.7784 7.52208C13.0791 6.89324 13.2477 6.18911 13.2477 5.44556C13.2477 2.78391 11.0899 0.626221 8.42821 0.626221C5.76648 0.626221 3.60874 2.78391 3.60874 5.44556C3.60874 6.7428 4.12144 7.92017 4.95505 8.78651C6.18305 8.08683 8.73157 7.08054 12.7784 7.52208ZM9.77731 6.79526H7.07911V4.09587H9.77731V6.79526ZM10.338 16.2347C10.5306 16.3003 10.7407 16.3529 10.9684 16.3922C11.2004 16.4273 11.4302 16.4448 11.6578 16.4448C11.9686 16.4448 12.1984 16.4316 12.3473 16.4054C12.5005 16.3747 12.6012 16.3288 12.6493 16.2675C12.6975 16.2062 12.7215 16.1274 12.7215 16.0311C12.7215 15.9479 12.704 15.8823 12.669 15.8341C12.634 15.786 12.5661 15.7488 12.4655 15.7225C12.3648 15.6919 12.2159 15.6678 12.019 15.6503L11.5856 15.6109C11.2617 15.5802 11.0056 15.5124 10.8173 15.4073C10.6335 15.3023 10.5022 15.1622 10.4234 14.9871C10.349 14.8076 10.3118 14.5931 10.3118 14.3436C10.3118 13.989 10.3971 13.7154 10.5678 13.5228C10.7429 13.3258 11.0362 13.1967 11.4477 13.1354V12.3344H12.4983V13.096C12.936 13.1223 13.3081 13.1967 13.6145 13.3193L13.5948 14.2123L13.5751 14.2385C13.1418 14.0853 12.6887 14.0087 12.2159 14.0087C11.9883 14.0087 11.8132 14.0219 11.6906 14.0481C11.5681 14.07 11.4827 14.1072 11.4346 14.1597C11.3864 14.2123 11.3623 14.2867 11.3623 14.383C11.3623 14.4793 11.3777 14.5515 11.4083 14.5997C11.4433 14.6478 11.5112 14.685 11.6119 14.7113C11.7125 14.7332 11.8592 14.7551 12.0518 14.777L12.4655 14.8229C12.8157 14.8623 13.0849 14.9324 13.2731 15.033C13.4613 15.1337 13.5905 15.2694 13.6605 15.4402C13.7349 15.6065 13.7721 15.81 13.7721 16.0508C13.7721 16.4141 13.6736 16.703 13.4766 16.9175C13.284 17.1277 12.9579 17.2634 12.4983 17.3246V18.0863H11.4477V17.3509C11.2332 17.3422 11.034 17.3225 10.8502 17.2918C10.6663 17.2612 10.4868 17.224 10.3118 17.1802V16.2544L10.338 16.2347ZM6.21087 17.3049H7.26146V15.972H7.39935C7.50878 15.972 7.58758 15.9764 7.63573 15.9851C7.68826 15.9939 7.73203 16.018 7.76705 16.0574C7.80645 16.0968 7.85679 16.1624 7.91807 16.2544L8.62722 17.3049H9.84853V17.2984C9.74785 17.132 9.63185 16.9548 9.50052 16.7665C9.37358 16.5739 9.24444 16.3966 9.11312 16.2347C8.98179 16.0727 8.86141 15.9567 8.75198 15.8867L8.75854 15.867C9.0387 15.8057 9.26414 15.6547 9.43486 15.4139C9.60558 15.1688 9.69094 14.8755 9.69094 14.534C9.69094 14.0788 9.57056 13.7351 9.3298 13.5031C9.09342 13.2668 8.71477 13.1486 8.19385 13.1486H6.21087V17.3049ZM7.26146 14.0022H8.02313C8.24201 14.0022 8.39303 14.0459 8.4762 14.1335C8.56375 14.221 8.60752 14.3633 8.60752 14.5603C8.60752 14.7573 8.56375 14.8995 8.4762 14.9871C8.39303 15.0746 8.24201 15.1184 8.02313 15.1184H7.26146V14.0022Z" fill="url(#paint0_linear_2292_251)"/>
  <defs>
  <linearGradient id="paint0_linear_2292_251" x1="11.625" y1="0.626221" x2="11.625" y2="23.1262" gradientUnits="userSpaceOnUse">
    <stop stop-color="#FFF"/>
    <stop offset="1" stop-color="#FFF"/>
  </linearGradient>
  </defs>
</svg>